<svg fill="none" height="24" viewBox="0 0 24 24" width="24" xmlns="http://www.w3.org/2000/svg"><g fill="#000"><path d="m17 21.75h-10c-2.07 0-3.75-1.68-3.75-3.75v-.84c0-.69-.11002-1.37-.33002-2.03-.28-.83-1.04998-1.38-1.91998-1.38-.41 0-.75-.34-.75-.75v-2c0-.41.34-.75.75-.75.87 0 1.64998-.56 1.91998-1.38.22-.66.33002-1.34.33002-2.03v-.84c0-2.07 1.68-3.75 3.75-3.75h10c2.07 0 3.75 1.68 3.75 3.75v.84c0 .69.11 1.37.33 2.03.28.83 1.05 1.38 1.92 1.38.41 0 .75.34.75.75v2c0 .41-.34.75-.75.75-.87 0-1.65.56-1.92 1.38-.22.66-.33 1.34-.33 2.03v.84c0 2.07-1.68 3.75-3.75 3.75zm-15.25-9.42c1.2.26 2.19003 1.13 2.59003 2.33.27.81.40997 1.65.40997 2.5v.84c0 1.24 1.01 2.25 2.25 2.25h10c1.24 0 2.25-1.01 2.25-2.25v-.84c0-.85.14-1.69.41-2.5.4-1.2 1.4-2.07 2.59-2.33v-.66c-1.2-.26-2.19-1.13-2.59-2.33-.27-.81-.41-1.65-.41-2.5v-.84c0-1.24-1.01-2.25-2.25-2.25h-10c-1.24 0-2.25 1.01-2.25 2.25v.84c0 .85-.13997 1.69-.40997 2.5-.4 1.2-1.40003 2.07-2.59003 2.33z"/><path d="m12.67 16.9199h-2.92c-.41 0-.75-.34-.75-.75v-8.33006c0-.41.34-.75.75-.75h2.92c1.56 0 2.83 1.27002 2.83 2.83002 0 .82004-.35 1.56994-.92 2.07994.56.52.92 1.26.92 2.08 0 1.57-1.27 2.8401-2.83 2.8401zm-2.17-1.5h2.17c.74 0 1.33-.6001 1.33-1.3301s-.6-1.3299-1.33-1.3299h-2.17zm0-4.1701h2.17c.74 0 1.33-.5999 1.33-1.32994 0-.73-.6-1.33002-1.33-1.33002h-2.17z"/></g></svg>