<svg height="48" viewBox="0 0 48.000001 48.000001" width="48" xmlns="http://www.w3.org/2000/svg" xmlns:xlink="http://www.w3.org/1999/xlink"><linearGradient id="a" gradientUnits="userSpaceOnUse" x1="24" x2="24" y1="1048.3622" y2="1008.3622"><stop offset="0" stop-color="#6e3a84"/><stop offset="1" stop-color="#a75ec4"/></linearGradient><linearGradient id="b" gradientUnits="userSpaceOnUse" x1="23.404831" x2="43.566404" y1="22.8561" y2="43.0176"><stop offset="0"/><stop offset="1" stop-color="#9b59b6" stop-opacity="0"/></linearGradient><linearGradient id="c" gradientUnits="userSpaceOnUse" x1="22.67647668877" x2="22.67647668877" y1="1052.41684357344" y2="1015.26768803274"><stop offset="0" stop-color="#dde0e2"/><stop offset="1" stop-color="#fcfcfc"/></linearGradient><g transform="translate(0 -1004.3622)"><ellipse cx="24" cy="1028.3622" fill="url(#a)"/><circle cx="24" cy="1028.3622" fill="url(#a)" r="20"/><path d="m43.978516 1027.7802a20 20 0 0 1 -19.978516 19.582 20 20 0 0 1 -19.9785164-19.418 20 20 0 0 0 -.021484.418 20 20 0 0 0 20.0000004 20 20 20 0 0 0 20-20 20 20 0 0 0 -.02148-.582z" opacity=".3"/><path d="m30.650391 15.240234c-4.390729-1.077408-7.959173-1.220861-9.96875.40625l1.5 3.96875 4.4375 4.0625-7.40625.75-4.21875 1.71875 1.376953 3.398438-3.488282-.09766-2.517578-.113282 2.212891 2.347657 12.287109 12.287109c10.694321-.463082 19.128062-9.264405 19.134766-19.968746-.00819-1.528951-.19168-3.051919-.546875-4.539062l-7.302734-7.302735c-.919516-.435826-4.098066 2.168476-5.5 3.082031zm-20.384766 14.089844.0059.0098v-.0098z" fill="url(#b)" opacity=".2" transform="translate(0 1004.3622)"/><path d="m14.681626 1037.2515c-1.725989-1.0129-2.564435-1.6218-3.487563-2.5336-1.110776-1.0968-1.612538-1.9384-1.757435-2.9475-.199295-1.3878.764851-2.8171 2.456549-3.6413 3.315707-1.6158 7.80777-1.969 12.116521-.9528.912205.2152.88263.1473-.220396-.5038-1.451878-.8576-3.696549-2.6295-5.000884-3.9477-1.547227-1.5637-2.506662-3.2165-2.506662-4.2646 0-.6917.341263-1.425 1.144338-1.867 1.879088-1.0342 8.474861.7065 12.890807.9536 1.398491.072 2.334372.084 2.330243-.726-.0035-.6934-1.857579-1.0736-2.754513-1.0089.787671-.2647 1.542758-.4023 2.55205-.4238 2.018261-.043 2.425663.2164 2.837044.4088.828775.3876 1.581725 1.2784 1.547181 2.412-.111335 3.6536-4.469868 2.028-7.370873 1.5033-3.200474-.5789-5.947707-1.0532-6.877247.039-2.194353 2.5793 5.481813 7.639 7.852532 9.4377-1.978863.1508-12.551735-.9457-14.008144 2.7564-.514256 1.6807 2.311574 3.4751 4.94913 4.3848 2.146186.7069 4.755659 1.5082 7.996255 1.7206 2.936241.1925 4.439855-.2267 4.163626-2.4529 2.332821 1.2064 2.180855 3.6088.665477 4.6677-2.454408 1.715-9.804973.2513-10.248602.1594-3.577945-.7411-6.935868-1.8173-9.269434-3.1738z" fill="url(#c)"/></g></svg>